<svg width="150" height="150" version="1.1" viewBox="0 0 150 150" xmlns="http://www.w3.org/2000/svg"><g transform="translate(-20.1 116)"><path d="m128-116a42.5 42.5 0 00-37.6 23 63.7 63.7 0 0157.1 57.1 42.5 42.5 0 0023-37.6 42.5 42.5 0 00-42.5-42.5zm19.5 80.1a42.5 42.5 0 01-19.5 4.85 42.5 42.5 0 01-42.5-42.5 42.5 42.5 0 014.85-19.5 63.7 63.7 0 00-6.27-.31 63.7 63.7 0 00-63.7 63.7 63.7 63.7 0 0063.7 63.7 63.7 63.7 0 0063.7-63.7 63.7 63.7 0 00-.31-6.27z" fill="#0083d0" stroke-width="3.18"/></g></svg>
