<svg width="960" height="312" version="1.1" viewBox="0 0 960 312" xmlns="http://www.w3.org/2000/svg" xmlns:xlink="http://www.w3.org/1999/xlink"><defs><radialGradient id="radialGradient6" cx="263" cy="25.9" r="185" gradientTransform="matrix(5.7 .0253 -.0157 2.82 -574 -38.8)" gradientUnits="userSpaceOnUse"><stop stop-color="#2a2a2a" offset="0"/><stop stop-color="#0f0f0f" offset="1"/></radialGradient></defs><rect width="960" height="312" rx="12" fill="url(#radialGradient6)" stroke-width="1.72"/><path d="m198 60a54.3 54.3 0 0 0-48.1 29.4 81.5 81.5 0 0 1 73.1 73.1 54.3 54.3 0 0 0 29.4-48.1 54.3 54.3 0 0 0-54.3-54.3zm25 102a54.3 54.3 0 0 1-25 6.21 54.3 54.3 0 0 1-54.3-54.3 54.3 54.3 0 0 1 6.21-25 81.5 81.5 0 0 0-8.02-0.396 81.5 81.5 0 0 0-81.5 81.5 81.5 81.5 0 0 0 81.5 81.5 81.5 81.5 0 0 0 81.5-81.5 81.5 81.5 0 0 0-0.396-8.02z" fill="#0083d0" stroke-width="4.08"/><path d="m317 201-24.2-94.2h10.5l20.2 80.3 23.3-80.3h10.2l23.2 80.3 20.2-80.3h10.5l-24.2 94.2h-11l-23.8-80-23.9 80zm125 0.512c-17.5 0-20-9.8-20-18.3v-57.5c0-17.3 13.4-18.9 18.6-18.9 4.22 0.0681 30.7 0.765 39.4 1.15v8.19h-36.9c-5.07 0-10.9 2.02-10.9 11.3v22.3l42.1 0.64v7.81l-42.1 0.64v22.1c0 4.74 0.717 11.1 11.4 11.1h36.4v8.19c-12.7 0.849-25.3 1.02-38 1.28zm55.2-0.512v-94.2h34c14.7 0 24.3 6.67 24.3 24.2 0 13.3-7.33 19.5-13.3 21.1 6.43 1.61 16.6 7.36 16.6 22.8 0 16.1-6.07 26.1-26.4 26.1zm10.2-9.09h24.8c12.4 0 16.9-6.32 16.9-18.7 0-11.3-8.41-16.6-16.9-16.6h-24.8zm0-43.4h24.4c7.62 0 13.8-5.81 14-16.1 0.379-13.5-7.61-16.4-14.6-16.4h-23.8zm102 52.5v-94.2h37.5c15.6 0 24.6 9.07 24.6 30.1 0 15.6-5.06 31-25.1 31-8.94-0.0377-17.8-0.673-26.8-1.28v34.4zm10.2-42.2h25.5c15.6 0 16.1-15.4 16.1-21.8 0-12.5-4.12-21-15.2-21h-26.4zm86 42.2c-16 0-18.9-9.71-18.9-18.9v-75.3h10.2v73.9c0 4.6 0.856 11 10.9 11h33.8v9.34zm80.6 0.768c-24.1 0-34.7-8.82-34.7-30v-65h10.2v65c0 12.3 4.6 20.7 24.4 20.7 17.6 0 24.4-6.49 24.4-20.7v-65h10.2v65c0 21-10.6 30-34.7 30zm79.9 0c-3.48 0-21.6-0.845-28.5-2.3v-7.81c5.11 0.409 29.3 2.18 38.5-0.128 5.66-1.41 10.1-5.07 10.1-13.1 0.997-11.2-2.32-19.1-14.1-19.7h-10.1c-7.77 0-13.9-1.71-18.3-5.12-6.81-5.83-6.53-14.8-6.53-23 0-8.87 2.39-15.2 7.17-18.9 11.7-9.18 39.1-4.61 47.4-2.94v7.81c-3.19-0.29-15.1-1.28-26.1-1.28-17.3 0-18.7 8.78-18.7 15.7-0.149 5.51-0.205 11.1 4.1 15.1 2.73 1.96 6.53 2.94 11.4 2.94h10.9c7.68 0 16.1 2.2 20.2 10.6 2.91 5.79 2.43 12.3 2.43 18.6 0 9.48-2.54 23.6-29.8 23.6z" fill="#f9f9f9" stroke-width="2.4" aria-label="WEB PLUS"/><path d="m352 242-3.63-14.1h1.57l3.03 12 3.49-12h1.54l3.48 12 3.03-12h1.57l-3.63 14.1h-1.65l-3.57-12-3.59 12zm34.8 0.0768c-2.62 0-3-1.47-3-2.75v-8.62c0-2.59 2-2.84 2.78-2.84 0.626 0.0101 4.6 0.115 5.91 0.173v1.23h-5.53c-0.761 0-1.63 0.303-1.63 1.69v3.34l6.32 0.096v1.17l-6.32 0.096v3.32c0 0.712 0.108 1.67 1.71 1.67h5.45v1.23c-1.9 0.127-3.8 0.153-5.7 0.192zm23.8-0.0768v-14.1h5.11c2.2 0 3.65 1 3.65 3.63 0 2-1.1 2.92-2 3.17 0.541 0.135 1.73 0.582 2.25 1.96 0.166 0.41 0.25 0.896 0.25 1.46 0 2.42-0.912 3.92-3.96 3.92zm1.54-1.36h3.72c1.86 0 2.53-0.95 2.53-2.8 0-1.69-1.26-2.5-2.53-2.5h-3.72zm0-6.51h3.67c1.14 0 2.07-0.871 2.09-2.42 0.0322-1.14-0.331-2.46-2.19-2.46h-3.57zm55.9 7.87 4.84-14.1h1.96l4.84 14.1h-1.57l-1.42-4.03h-5.68l-1.38 4.03zm3.34-5.41h4.92l-2.44-7.37zm26 5.41v-14.1h5.63c2.33 0 3.69 1.36 3.69 4.51 0 2.33-0.759 4.65-3.76 4.65-1.34-7e-3 -2.68-0.1-4.01-0.192v5.16zm1.54-6.34h3.82c2.34 0 2.42-2.31 2.42-3.26 0-1.88-0.618-3.15-2.28-3.15h-3.96zm25.6 6.34v-14.1h5.63c2.33 0 3.69 1.36 3.69 4.51 0 2.33-0.759 4.65-3.76 4.65-1.34-7e-3 -2.68-0.1-4.01-0.192v5.16zm1.54-6.34h3.82c2.34 0 2.42-2.31 2.42-3.26 0-1.88-0.618-3.15-2.28-3.15h-3.96zm29.6 6.45c-0.543 0-3.25-0.128-4.28-0.346v-1.17c0.714 0.0574 4.39 0.329 5.78-0.0192 0.461-0.115 0.826-0.326 1.09-0.634 0.282-0.307 0.422-0.749 0.422-1.32v-0.96c0-0.653-0.166-1.15-0.499-1.48-0.333-0.346-0.87-0.518-1.61-0.518h-1.52c-1.16 0-2.08-0.256-2.75-0.768-0.653-0.512-0.979-1.4-0.979-2.65v-0.806c0-1.33 0.358-2.28 1.08-2.84s1.73-0.845 3.03-0.845c1.11 0 3.4 0.269 4.07 0.403v1.17c-1.82-0.24-3.62-0.205-5.41 0.0192-0.422 0.128-0.749 0.365-0.979 0.71-0.218 0.333-0.326 0.813-0.326 1.44v0.653c0 0.781 0.205 1.32 0.614 1.61 0.41 0.294 0.979 0.442 1.71 0.442h1.63c0.781 0 1.42 0.141 1.92 0.422 0.499 0.282 0.87 0.672 1.11 1.17 0.243 0.486 0.365 1.05 0.365 1.69v1.09c0 0.947-0.205 1.68-0.614 2.19-0.397 0.512-0.934 0.864-1.61 1.06-0.666 0.192-1.41 0.288-2.25 0.288zm52.7-0.0192c-1.36 0.0192-2.79-0.274-3.61-1.73-0.352-0.623-0.922-1.91-0.922-5.47 0-1.19 0.0703-2.23 0.211-3.13 0.548-3.19 2.29-4.01 4.57-4.01 1.56 0 3.21 0.183 4.55 0.499v1.15c-1.76-0.264-4.29-0.269-4.32-0.269-2.02 0-2.84 0.899-3.21 2.42-0.192 0.845-0.288 1.96-0.288 3.36 0 2.51 0.234 3.76 0.71 4.57 0.44 0.748 1.14 1.21 2.73 1.21 1.58 0 3.18-0.603 3.49-0.73v-4.17h-3.42v-1.13c1.09-0.171 4.03-0.264 4.88-0.115v7.45h-1.11l-0.23-0.998c-1 0.502-2.48 1.07-4.03 1.09zm29 0.0192c-3.22 0-4.52-0.902-5.13-3.4-0.218-0.947-0.326-2.19-0.326-3.72s0.115-2.78 0.346-3.72c0.546-2.27 1.73-3.51 5.11-3.51 3.32 0 4.59 1.14 5.13 3.51 0.218 0.947 0.326 2.19 0.326 3.72s-0.115 2.78-0.346 3.72c-0.612 2.66-2.14 3.4-5.11 3.4zm0-1.36c2.27 0 3.32-0.594 3.72-2.76 0.141-0.755 0.211-1.75 0.211-3 0-1.29-0.0768-2.33-0.23-3.11-0.403-2.23-1.46-2.75-3.71-2.75-2.36 0-3.26 0.668-3.71 2.75-0.154 0.781-0.23 1.82-0.23 3.11 0 1.24 0.0641 2.24 0.192 3 0.396 2.12 1.33 2.76 3.74 2.76zm49.8 1.25v-14.1h1.25l7.37 11.5v-11.5h1.52v14.1h-1.25l-7.37-11.5v11.5zm32.8 0 4.84-14.1h1.96l4.84 14.1h-1.57l-1.42-4.03h-5.68l-1.38 4.03zm3.34-5.41h4.92l-2.44-7.37zm29.2 5.41v-12.7h-4.36v-1.38h10.3v1.38h-4.36v12.7zm23.2 0v-14.1h1.54v14.1zm29.2 0-4.84-14.1h1.57l4.26 12.5 4.24-12.5h1.56l-4.84 14.1zm27.5 0.0768c-2.62 0-3-1.47-3-2.75v-8.62c0-2.59 2-2.84 2.78-2.84 0.626 0.0101 4.6 0.115 5.91 0.173v1.23h-5.53c-0.761 0-1.63 0.303-1.63 1.69v3.34l6.32 0.096v1.17l-6.32 0.096v3.32c0 0.712 0.108 1.67 1.71 1.67h5.45v1.23c-1.9 0.127-3.8 0.153-5.7 0.192z" fill="#f9f9f9" stroke-width="2.4" aria-label="W   E   B         A   P   P   S        G   O        N    A   T   I    V   E"/><text x="131.9767" y="204.30292" fill="#0083d0" font-family="Exo" font-size="8px" xml:space="preserve"><tspan x="131.9767" y="204.30292"/><tspan x="131.9767" y="214.30292"/><tspan x="131.9767" y="224.30292"/></text></svg>
