<svg width="1920" height="420" version="1.1" viewBox="0 0 1920 420" xmlns="http://www.w3.org/2000/svg"><defs><radialGradient id="radialGradient6" cx="263" cy="25.9" r="185" gradientTransform="matrix(11.4 .0341 -.0314 3.8 -1148 -52.2)" gradientUnits="userSpaceOnUse"><stop stop-color="#2a2a2a" offset="0"/><stop stop-color="#0f0f0f" offset="1"/></radialGradient></defs><rect width="1920" height="420" rx="24" fill="url(#radialGradient6)" stroke-width="2.82"/><path d="m534 60a84.5 84.5 0 0 0-74.8 45.7 127 127 0 0 1 114 114 84.5 84.5 0 0 0 45.7-74.8 84.5 84.5 0 0 0-84.5-84.5zm38.9 159a84.5 84.5 0 0 1-38.9 9.66 84.5 84.5 0 0 1-84.5-84.5 84.5 84.5 0 0 1 9.66-38.9 127 127 0 0 0-12.5-0.616 127 127 0 0 0-127 127 127 127 0 0 0 127 127 127 127 0 0 0 127-127 127 127 0 0 0-0.616-12.5z" fill="#0083d0" stroke-width="6.35"/><path d="m713 276-37.1-144h16.1l30.9 123 35.7-123h15.6l35.5 123 30.9-123h16.1l-37.1 144h-16.8l-36.5-123-36.6 123zm191 0.784c-26.8 0-30.6-15-30.6-28v-88.1c0-26.5 20.5-29 28.5-29 6.46 0.104 47 1.17 60.4 1.76v12.5h-56.5c-7.77 0-16.7 3.09-16.7 17.3v34.2l64.5 0.98v12l-64.5 0.98v33.9c0 7.26 1.1 17 17.5 17h55.8v12.5c-19.5 1.3-38.8 1.56-58.2 1.96zm84.6-0.784v-144h52.1c22.5 0 37.2 10.2 37.2 37.1 0 20.4-11.2 29.9-20.4 32.3 9.85 2.47 25.4 11.3 25.4 34.9 0 24.7-9.3 40-40.4 40zm15.6-13.9h38c19 0 25.9-9.68 25.9-28.6 0-17.3-12.9-25.4-25.9-25.4h-38zm0-66.5h37.4c11.7 0 21.1-8.9 21.4-24.7 0.58-20.7-11.7-25.1-22.4-25.1h-36.5zm156 80.4v-144h57.4c23.9 0 37.7 13.9 37.7 46.1 0 23.9-7.75 47.5-38.4 47.5-13.7-0.0578-27.3-1.03-41.1-1.96v52.7zm15.6-64.6h39.1c23.9 0 24.7-23.6 24.7-33.4 0-19.1-6.31-32.2-23.3-32.2h-40.4zm132 64.6c-24.5 0-29-14.9-29-29v-115h15.6v113c0 7.05 1.31 16.8 16.7 16.8h51.8v14.3zm123 1.18c-36.9 0-53.2-13.5-53.2-46v-99.6h15.6v99.6c0 18.8 7.05 31.7 37.4 31.7 27 0 37.4-9.94 37.4-31.7v-99.6h15.6v99.6c0 32.2-16.2 46-53.2 46zm122 0c-5.33 0-33.1-1.29-43.7-3.52v-12c7.83 0.627 44.9 3.34 59-0.196 8.67-2.16 15.5-7.77 15.5-20.1 1.53-17.2-3.55-29.3-21.6-30.2h-15.5c-11.9 0-21.3-2.62-28-7.84-10.4-8.93-10-22.7-10-35.2 0-13.6 3.66-23.3 11-29 17.9-14.1 59.9-7.06 72.6-4.5v12c-4.89-0.444-23.1-1.96-40-1.96-26.5 0-28.6 13.4-28.6 24-0.228 8.44-0.314 17 6.28 23.1 4.18 3 10 4.5 17.5 4.5h16.7c11.8 0 24.7 3.37 30.9 16.2 4.46 8.87 3.72 18.8 3.72 28.5 0 14.5-3.89 36.2-45.6 36.2z" fill="#f9f9f9" stroke-width="3.68" aria-label="WEB PLUS"/><path d="m767 339-5.56-21.6h2.4l4.64 18.4 5.35-18.4h2.36l5.33 18.4 4.64-18.4h2.4l-5.56 21.6h-2.53l-5.47-18.4-5.5 18.4zm53.3 0.118c-4.01 0-4.6-2.25-4.6-4.21v-13.2c0-3.97 3.06-4.35 4.26-4.35 0.959 0.0149 7.05 0.176 9.05 0.265v1.88h-8.47c-1.17 0-2.5 0.464-2.5 2.59v5.12l9.68 0.147v1.79l-9.68 0.147v5.09c0 1.09 0.166 2.56 2.62 2.56h8.35v1.88c-2.91 0.195-5.82 0.234-8.73 0.294zm36.5-0.118v-21.6h7.83c3.37 0 5.59 1.53 5.59 5.56 0 3.06-1.68 4.47-3.06 4.86 0.829 0.207 2.65 0.892 3.45 3 0.254 0.628 0.383 1.37 0.383 2.24 0 3.71-1.4 6-6.07 6zm2.36-2.08h5.7c2.85 0 3.88-1.46 3.88-4.29 0-2.59-1.93-3.83-3.88-3.83h-5.7zm0-9.97h5.62c1.75 0 3.17-1.33 3.2-3.71 0.0493-1.75-0.507-3.77-3.35-3.77h-5.47zm85.6 12.1 7.41-21.6h3l7.41 21.6h-2.4l-2.18-6.17h-8.7l-2.11 6.17zm5.12-8.29h7.54l-3.74-11.3zm39.8 8.29v-21.6h8.62c3.57 0 5.65 2.08 5.65 6.91 0 3.57-1.16 7.12-5.76 7.12-2.05-0.0107-4.11-0.153-6.14-0.294v7.9zm2.36-9.71h5.85c3.58 0 3.71-3.54 3.71-4.99 0-2.88-0.947-4.83-3.49-4.83h-6.07zm39.2 9.71v-21.6h8.62c3.57 0 5.65 2.08 5.65 6.91 0 3.57-1.16 7.12-5.76 7.12-2.05-0.0107-4.11-0.153-6.14-0.294v7.9zm2.36-9.71h5.85c3.58 0 3.71-3.54 3.71-4.99 0-2.88-0.947-4.83-3.49-4.83h-6.07zm45.3 9.88c-0.832 0-4.98-0.196-6.56-0.53v-1.79c1.09 0.0879 6.72 0.504 8.85-0.0294 0.706-0.176 1.27-0.499 1.67-0.971 0.432-0.47 0.646-1.15 0.646-2.02v-1.47c0-1-0.254-1.76-0.764-2.27-0.51-0.53-1.33-0.793-2.47-0.793h-2.33c-1.78 0-3.19-0.392-4.21-1.18-1-0.784-1.5-2.14-1.5-4.06v-1.23c0-2.04 0.548-3.49 1.65-4.35 1.11-0.858 2.65-1.29 4.64-1.29 1.7 0 5.21 0.412 6.23 0.617v1.79c-2.79-0.368-5.55-0.314-8.29 0.0294-0.646 0.196-1.15 0.559-1.5 1.09-0.334 0.51-0.499 1.25-0.499 2.21v1c0 1.2 0.314 2.02 0.94 2.47 0.628 0.45 1.5 0.677 2.62 0.677h2.5c1.2 0 2.18 0.216 2.94 0.646 0.764 0.432 1.33 1.03 1.7 1.79 0.372 0.744 0.559 1.61 0.559 2.59v1.67c0 1.45-0.314 2.57-0.94 3.35-0.608 0.784-1.43 1.32-2.47 1.62-1.02 0.294-2.16 0.441-3.45 0.441zm80.7-0.0294c-2.08 0.0294-4.27-0.42-5.53-2.65-0.539-0.954-1.41-2.93-1.41-8.38 0-1.82 0.108-3.42 0.323-4.79 0.839-4.89 3.51-6.14 7-6.14 2.39 0 4.92 0.28 6.97 0.764v1.76c-2.7-0.404-6.57-0.412-6.62-0.412-3.09 0-4.35 1.38-4.92 3.71-0.294 1.29-0.441 3-0.441 5.15 0 3.84 0.358 5.76 1.09 7 0.674 1.15 1.75 1.85 4.18 1.85 2.42 0 4.87-0.924 5.35-1.12v-6.39h-5.24v-1.73c1.67-0.262 6.17-0.404 7.48-0.176v11.4h-1.7l-0.352-1.53c-1.53 0.769-3.8 1.64-6.17 1.67zm44.4 0.0294c-4.93 0-6.92-1.38-7.86-5.21-0.334-1.45-0.499-3.35-0.499-5.7 0-2.34 0.176-4.26 0.53-5.7 0.836-3.48 2.65-5.38 7.83-5.38 5.09 0 7.03 1.75 7.86 5.38 0.334 1.45 0.499 3.35 0.499 5.7 0 2.34-0.176 4.26-0.53 5.7-0.937 4.07-3.28 5.21-7.83 5.21zm0-2.08c3.48 0 5.09-0.91 5.7-4.23 0.216-1.16 0.323-2.68 0.323-4.6 0-1.98-0.118-3.57-0.352-4.76-0.617-3.42-2.24-4.21-5.68-4.21-3.62 0-4.99 1.02-5.68 4.21-0.236 1.2-0.352 2.79-0.352 4.76 0 1.9 0.098 3.43 0.294 4.6 0.607 3.25 2.04 4.23 5.73 4.23zm76.3 1.91v-21.6h1.91l11.3 17.6v-17.6h2.33v21.6h-1.91l-11.3-17.6v17.6zm50.2 0 7.41-21.6h3l7.41 21.6h-2.4l-2.18-6.17h-8.7l-2.11 6.17zm5.12-8.29h7.54l-3.74-11.3zm44.7 8.29v-19.5h-6.68v-2.11h15.8v2.11h-6.68v19.5zm35.5 0v-21.6h2.36v21.6zm44.7 0-7.41-21.6h2.4l6.53 19.1 6.49-19.1h2.39l-7.41 21.6zm42.1 0.118c-4.01 0-4.6-2.25-4.6-4.21v-13.2c0-3.97 3.06-4.35 4.26-4.35 0.959 0.0149 7.05 0.176 9.05 0.265v1.88h-8.47c-1.17 0-2.5 0.464-2.5 2.59v5.12l9.68 0.147v1.79l-9.68 0.147v5.09c0 1.09 0.165 2.56 2.62 2.56h8.35v1.88c-2.91 0.195-5.82 0.234-8.73 0.294z" fill="#f9f9f9" stroke-width="3.68" aria-label="W   E   B         A   P   P   S        G   O        N    A   T   I    V   E"/><text x="131.9767" y="204.30292" fill="#0083d0" font-family="Exo" font-size="8px" xml:space="preserve"><tspan x="131.9767" y="204.30292"/><tspan x="131.9767" y="214.30292"/><tspan x="131.9767" y="224.30292"/></text></svg>
