<svg width="1920" height="341" version="1.1" viewBox="0 0 1920 341" xmlns="http://www.w3.org/2000/svg" xmlns:xlink="http://www.w3.org/1999/xlink"><defs><radialGradient id="radialGradient6-2" cx="263" cy="26.3" r="185" gradientTransform="matrix(11.4 .0277 -.0315 3.08 -1238 202)" gradientUnits="userSpaceOnUse"><stop stop-color="#2a2a2a" offset="0"/><stop stop-color="#0f0f0f" offset="1"/></radialGradient></defs><g transform="translate(90.1 -245)"><rect x="-90.1" y="245" width="1920" height="341" rx="24" fill="url(#radialGradient6-2)" stroke-width="2.55"/><path d="m141 311a59.5 59.5 0 0 0-52.7 32.1 89.2 89.2 0 0 1 80 80 59.5 59.5 0 0 0 32.1-52.7 59.5 59.5 0 0 0-59.5-59.5zm27.3 112a59.5 59.5 0 0 1-27.3 6.8 59.5 59.5 0 0 1-59.5-59.5 59.5 59.5 0 0 1 6.8-27.3 89.2 89.2 0 0 0-8.78-0.434 89.2 89.2 0 0 0-89.2 89.2 89.2 89.2 0 0 0 89.2 89.2 89.2 89.2 0 0 0 89.2-89.2 89.2 89.2 0 0 0-0.434-8.78z" fill="#0083d0" stroke-width="4.46"/><path d="m272 464-26.5-103h11.5l22.1 87.8 25.5-87.8h11.2l25.4 87.8 22.1-87.8h11.5l-26.5 103h-12l-26.1-87.5-26.2 87.5zm137 0.56c-19.1 0-21.9-10.7-21.9-20v-62.9c0-18.9 14.6-20.7 20.3-20.7 4.62 0.0746 33.6 0.838 43.1 1.26v8.96h-40.3c-5.55 0-11.9 2.21-11.9 12.3v24.4l46.1 0.7v8.54l-46.1 0.7v24.2c0 5.19 0.785 12.2 12.5 12.2h39.8v8.96c-13.8 0.929-27.7 1.12-41.6 1.4zm60.4-0.56v-103h37.3c16.1 0 26.6 7.29 26.6 26.5 0 14.6-8.02 21.3-14.6 23.1 7.04 1.76 18.2 8.06 18.2 24.9 0 17.6-6.65 28.6-28.9 28.6zm11.2-9.95h27.2c13.6 0 18.5-6.92 18.5-20.5 0-12.3-9.2-18.2-18.5-18.2h-27.2zm0-47.5h26.8c8.34 0 15.1-6.36 15.3-17.6 0.415-14.7-8.33-17.9-16-17.9h-26.1zm111 57.4v-103h41c17 0 26.9 9.92 26.9 32.9 0 17-5.54 33.9-27.5 33.9-9.78-0.0412-19.5-0.736-29.3-1.4v37.7zm11.2-46.2h27.9c17.1 0 17.6-16.8 17.6-23.8 0-13.7-4.5-23-16.7-23h-28.9zm94.1 46.2c-17.6 0-20.7-10.6-20.7-20.7v-82.4h11.2v80.8c0 5.03 0.936 12 11.9 12h37v10.2zm88.2 0.84c-26.3 0-38-9.65-38-32.8v-71.2h11.2v71.2c0 13.5 5.03 22.7 26.8 22.7 19.3 0 26.8-7.1 26.8-22.7v-71.2h11.2v71.2c0 23-11.6 32.8-38 32.8zm87.4 0c-3.81 0-23.6-0.924-31.2-2.52v-8.54c5.59 0.447 32.1 2.39 42.2-0.14 6.19-1.55 11.1-5.54 11.1-14.3 1.09-12.3-2.54-20.9-15.4-21.6h-11.1c-8.5 0-15.2-1.87-20-5.6-7.45-6.38-7.14-16.2-7.14-25.2 0-9.71 2.61-16.6 7.84-20.7 12.8-10 42.7-5.04 51.8-3.22v8.54c-3.49-0.318-16.5-1.4-28.6-1.4-18.9 0-20.5 9.61-20.5 17.2-0.163 6.03-0.225 12.1 4.48 16.5 2.99 2.15 7.14 3.22 12.5 3.22h11.9c8.41 0 17.6 2.4 22.1 11.6 3.19 6.34 2.66 13.4 2.66 20.3 0 10.4-2.77 25.8-32.6 25.8z" fill="#f9f9f9" stroke-width="2.63" aria-label="WEB PLUS"/><path d="m310 510-3.97-15.5h1.72l3.32 13.2 3.82-13.2h1.68l3.8 13.2 3.32-13.2h1.72l-3.97 15.5h-1.81l-3.91-13.1-3.93 13.1zm38.1 0.084c-2.87 0-3.28-1.61-3.28-3v-9.43c0-2.83 2.19-3.11 3.05-3.11 0.685 0.0105 5.04 0.125 6.47 0.189v1.34h-6.05c-0.833 0-1.79 0.331-1.79 1.85v3.66l6.91 0.105v1.28l-6.91 0.105v3.63c0 0.779 0.118 1.83 1.87 1.83h5.97v1.34c-2.08 0.139-4.16 0.168-6.24 0.21zm26.1-0.084v-15.5h5.59c2.41 0 3.99 1.09 3.99 3.97 0 2.19-1.2 3.2-2.19 3.47 0.592 0.148 1.89 0.637 2.46 2.14 0.182 0.448 0.273 0.98 0.273 1.6 0 2.64-0.998 4.29-4.33 4.29zm1.68-1.49h4.08c2.04 0 2.77-1.04 2.77-3.07 0-1.85-1.38-2.73-2.77-2.73h-4.08zm0-7.12h4.01c1.25 0 2.26-0.953 2.29-2.65 0.0352-1.25-0.362-2.69-2.4-2.69h-3.91zm61.1 8.61 5.29-15.5h2.14l5.29 15.5h-1.72l-1.55-4.41h-6.22l-1.51 4.41zm3.66-5.92h5.38l-2.67-8.07zm28.4 5.92v-15.5h6.16c2.55 0 4.03 1.49 4.03 4.94 0 2.55-0.83 5.08-4.12 5.08-1.47-8e-3 -2.93-0.11-4.39-0.21v5.65zm1.68-6.93h4.18c2.56 0 2.65-2.52 2.65-3.57 0-2.06-0.677-3.45-2.5-3.45h-4.33zm28 6.93v-15.5h6.16c2.55 0 4.03 1.49 4.03 4.94 0 2.55-0.83 5.08-4.12 5.08-1.47-8e-3 -2.93-0.11-4.39-0.21v5.65zm1.68-6.93h4.18c2.56 0 2.65-2.52 2.65-3.57 0-2.06-0.677-3.45-2.5-3.45h-4.33zm32.4 7.06c-0.594 0-3.55-0.14-4.69-0.378v-1.28c0.781 0.0628 4.8 0.36 6.32-0.021 0.504-0.126 0.903-0.357 1.2-0.693 0.308-0.336 0.462-0.819 0.462-1.45v-1.05c0-0.714-0.182-1.25-0.546-1.62-0.364-0.378-0.952-0.567-1.76-0.567h-1.66c-1.27 0-2.28-0.28-3-0.84-0.714-0.56-1.07-1.53-1.07-2.9v-0.882c0-1.46 0.392-2.49 1.18-3.11 0.784-0.616 1.89-0.924 3.32-0.924 1.22 0 3.72 0.294 4.45 0.441v1.28c-1.99-0.262-3.96-0.225-5.92 0.021-0.462 0.14-0.819 0.399-1.07 0.777-0.238 0.364-0.357 0.889-0.357 1.58v0.714c0 0.854 0.224 1.44 0.672 1.76 0.448 0.322 1.07 0.483 1.87 0.483h1.79c0.854 0 1.55 0.154 2.1 0.462 0.546 0.308 0.952 0.735 1.22 1.28 0.266 0.532 0.399 1.15 0.399 1.85v1.2c0 1.04-0.224 1.83-0.672 2.4-0.434 0.56-1.02 0.945-1.76 1.16-0.728 0.21-1.55 0.315-2.46 0.315zm57.7-0.021c-1.49 0.021-3.05-0.299-3.95-1.89-0.385-0.682-1.01-2.09-1.01-5.99 0-1.3 0.077-2.44 0.231-3.42 0.599-3.5 2.5-4.39 5-4.39 1.71 0 3.51 0.2 4.98 0.546v1.26c-1.93-0.289-4.7-0.294-4.73-0.294-2.21 0-3.11 0.984-3.51 2.65-0.21 0.924-0.315 2.15-0.315 3.68 0 2.74 0.256 4.11 0.777 5 0.482 0.819 1.24 1.32 2.98 1.32 1.73 0 3.48-0.66 3.82-0.798v-4.56h-3.74v-1.24c1.19-0.188 4.41-0.289 5.34-0.126v8.15h-1.22l-0.252-1.09c-1.1 0.549-2.71 1.17-4.41 1.2zm31.7 0.021c-3.52 0-4.95-0.987-5.61-3.72-0.238-1.04-0.357-2.4-0.357-4.08 0-1.68 0.126-3.04 0.378-4.08 0.597-2.49 1.89-3.84 5.59-3.84 3.64 0 5.02 1.24 5.61 3.84 0.238 1.04 0.357 2.4 0.357 4.08 0 1.68-0.126 3.04-0.378 4.08-0.67 2.91-2.34 3.72-5.59 3.72zm0-1.49c2.48 0 3.63-0.65 4.08-3.03 0.154-0.826 0.231-1.92 0.231-3.28 0-1.41-0.084-2.55-0.252-3.4-0.441-2.45-1.6-3-4.06-3-2.58 0-3.57 0.731-4.06 3-0.168 0.854-0.252 1.99-0.252 3.4 0 1.36 0.0701 2.45 0.21 3.28 0.433 2.32 1.46 3.03 4.1 3.03zm54.5 1.37v-15.5h1.37l8.07 12.6v-12.6h1.66v15.5h-1.37l-8.07-12.6v12.6zm35.8 0 5.29-15.5h2.14l5.29 15.5h-1.72l-1.55-4.41h-6.22l-1.51 4.41zm3.66-5.92h5.38l-2.67-8.07zm31.9 5.92v-14h-4.77v-1.51h11.2v1.51h-4.77v14zm25.4 0v-15.5h1.68v15.5zm32 0-5.29-15.5h1.72l4.66 13.7 4.64-13.7h1.7l-5.29 15.5zm30.1 0.084c-2.87 0-3.28-1.61-3.28-3v-9.43c0-2.83 2.19-3.11 3.05-3.11 0.685 0.0105 5.04 0.125 6.47 0.189v1.34h-6.05c-0.833 0-1.79 0.331-1.79 1.85v3.66l6.91 0.105v1.28l-6.91 0.105v3.63c0 0.779 0.118 1.83 1.87 1.83h5.97v1.34c-2.08 0.139-4.16 0.168-6.24 0.21z" fill="#f9f9f9" stroke-width="2.63" aria-label="W   E   B         A   P   P   S        G   O        N    A   T   I    V   E"/><text x="131.9767" y="204.30292" fill="#0083d0" font-family="Exo" font-size="8px" xml:space="preserve"><tspan x="131.9767" y="204.30292"/><tspan x="131.9767" y="214.30292"/><tspan x="131.9767" y="224.30292"/></text><rect x="1190" y="314" width="560" height="210" rx="13.1" fill-opacity=".188"/><g fill="#f9f9f9"><g font-family="Exo" font-size="22.8px" stroke-width="2.63"><text x="1290.2284" y="359.60303" xml:space="preserve"><tspan x="1290.2284" y="359.60303">footprint:</tspan><tspan x="1290.2284" y="388.0549" fill="#f9f9f9" font-weight="bold">sub-atomic</tspan></text><text x="1568.4417" y="354.00479" xml:space="preserve"><tspan x="1568.4417" y="354.00479">performance:</tspan><tspan x="1568.4417" y="382.45667" fill="#f9f9f9" font-weight="bold">warpspeed</tspan></text><text x="1290.347" y="466.62466" xml:space="preserve"><tspan x="1290.347" y="466.62466">flexability:</tspan><tspan x="1290.347" y="495.07654" fill="#f9f9f9" font-weight="bold">granny-style</tspan></text><text x="1568.4939" y="467.63348" xml:space="preserve"><tspan x="1568.4939" y="467.63348">security:</tspan><tspan x="1568.4939" y="496.08536" fill="#f9f9f9" font-weight="bold">os has that</tspan></text></g><path d="m1243 491 3.68-3.68-4.07-4.2h10.9v-5.25h-10.9l4.07-4.2-3.68-3.68-10.5 10.5zm15.8-10.5 10.5-10.5-10.5-10.5-3.68 3.68 4.07 4.2h-10.9v5.25h10.9l-4.07 4.2zm-7.88 21q-5.45 0-10.2-2.07-4.79-2.07-8.34-5.61-3.55-3.55-5.61-8.34-2.07-4.79-2.07-10.2t2.07-10.2q2.07-4.79 5.61-8.34 3.55-3.55 8.34-5.61 4.79-2.07 10.2-2.07 5.45 0 10.2 2.07t8.34 5.61q3.55 3.55 5.61 8.34 2.07 4.79 2.07 10.2t-2.07 10.2q-2.07 4.79-5.61 8.34-3.55 3.55-8.34 5.61t-10.2 2.07zm0-5.25q8.8 0 14.9-6.11t6.11-14.9-6.11-14.9-14.9-6.11q-8.8 0-14.9 6.11t-6.11 14.9 6.11 14.9 14.9 6.11z" stroke-width=".0657"/><path d="m1525 371q1.58 1.58 4.07 1.54 2.5-0.0328 3.68-1.81l14.7-22.1-22.1 14.7q-1.77 1.18-1.87 3.61-0.099 2.43 1.48 4.01zm4.07-30.2q3.87 0 7.45 1.08 3.58 1.08 6.73 3.25l-4.99 3.15q-2.17-1.12-4.5-1.67-2.33-0.558-4.69-0.558-8.73 0-14.9 6.14-6.14 6.14-6.14 14.9 0 2.76 0.755 5.45 0.755 2.69 2.13 5.06h36.2q1.51-2.5 2.2-5.19 0.689-2.69 0.689-5.58 0-2.36-0.558-4.6-0.558-2.23-1.67-4.33l3.15-4.99q1.97 3.09 3.12 6.57t1.21 7.22q0.066 3.74-0.854 7.16-0.919 3.41-2.69 6.5-0.722 1.18-1.97 1.84t-2.63 0.657h-36.2q-1.38 0-2.63-0.657t-1.97-1.84q-1.71-2.95-2.63-6.27t-0.919-6.99q0-5.45 2.07-10.2t5.65-8.34q3.58-3.58 8.37-5.65 4.79-2.07 10.2-2.07z" stroke-width=".0657"/><path d="m1527 484 14.8-14.8-3.74-3.74-11.1 11.1-5.52-5.52-3.74 3.74zm2.76 16.9q-9.13-2.3-15.1-10.5-5.94-8.17-5.94-18.2v-16l21-7.88 21 7.88v16q0 9.98-5.94 18.2-5.94 8.17-15.1 10.5zm0-5.52q6.83-2.17 11.3-8.67 4.46-6.5 4.46-14.4v-12.4l-15.8-5.91-15.8 5.91v12.4q0 7.94 4.46 14.4 4.46 6.5 11.3 8.67z"/><path d="m1239 352q-1.12 0-1.87-0.755t-0.755-1.87q0-1.12 0.755-1.87t1.87-0.755q1.12 0 1.87 0.755t0.755 1.87q0 1.12-0.755 1.87t-1.87 0.755zm11.8 36.8q-4.33 0-7.42-3.09-3.09-3.09-3.09-7.42v-15.8q0-6.57 4.6-11.2 4.6-4.6 11.2-4.6h4.79q4.53 0 7.75 3.05 3.22 3.05 3.22 7.52 0 3.02-1.61 5.55-1.61 2.53-4.37 3.84-2.1 0.985-3.32 2.92-1.21 1.94-1.21 4.23v4.4q0 4.4-3.05 7.45t-7.45 3.05zm-5.25-42q-1.12 0-1.87-0.755t-0.755-1.87v-1.31q0-1.12 0.755-1.87t1.87-0.755q1.12 0 1.87 0.755t0.755 1.87v1.31q0 1.12-0.755 1.87t-1.87 0.755zm5.25 36.8q2.17 0 3.71-1.54 1.54-1.54 1.54-3.71v-4.4q0-3.81 2-7.03 2-3.22 5.48-4.86 1.38-0.657 2.2-1.94t0.821-2.79q0-2.3-1.71-3.78-1.71-1.48-4.01-1.48h-4.79q-4.33 0-7.42 3.09-3.09 3.09-3.09 7.42v15.8q0 2.17 1.54 3.71 1.54 1.54 3.71 1.54zm2.63-39.4q-1.12 0-1.87-0.755-0.755-0.755-0.755-1.87v-1.31q0-1.12 0.755-1.87 0.755-0.755 1.87-0.755t1.87 0.755q0.755 0.755 0.755 1.87v1.31q0 1.12-0.755 1.87-0.755 0.755-1.87 0.755zm7.88 0q-1.12 0-1.87-0.755-0.755-0.755-0.755-1.87v-2.63q0-1.12 0.755-1.87 0.755-0.755 1.87-0.755t1.87 0.755q0.755 0.755 0.755 1.87v2.63q0 1.12-0.755 1.87-0.755 0.755-1.87 0.755zm9.19 2.63q-1.64 0-2.79-1.15-1.15-1.15-1.15-2.79v-2.63q0-1.64 1.15-2.79 1.15-1.15 2.79-1.15 1.64 0 2.79 1.15 1.15 1.15 1.15 2.79v2.63q0 1.64-1.15 2.79-1.15 1.15-2.79 1.15z" stroke-width=".0657"/></g></g></svg>
